Coordinates
version=1
nRows=16
nColumns=40
inDegrees=yes

Units are S.I. units (second, meters, Newtons, ...)
If the header above contains a line with 'inDegrees', this indicates whether rotational values are in degrees (yes) or radians (no).

endheader
time	pelvis_tilt	pelvis_list	pelvis_rotation	pelvis_tx	pelvis_ty	pelvis_tz	hip_flexion_r	hip_adduction_r	hip_rotation_r	knee_angle_r	knee_angle_r_beta	ankle_angle_r	subtalar_angle_r	mtp_angle_r	hip_flexion_l	hip_adduction_l	hip_rotation_l	knee_angle_l	knee_angle_l_beta	ankle_angle_l	subtalar_angle_l	mtp_angle_l	lumbar_extension	lumbar_bending	lumbar_rotation	arm_flex_r	arm_add_r	arm_rot_r	elbow_flex_r	pro_sup_r	wrist_flex_r	wrist_dev_r	arm_flex_l	arm_add_l	arm_rot_l	elbow_flex_l	pro_sup_l	wrist_flex_l	wrist_dev_l
      2.26000000	     -4.04091436	    -11.00556687	     89.22622134	      0.19117722	      0.92277453	     -0.13786145	     29.77670424	     -5.44395319	     -0.24960584	     51.43487083	      0.89770785	      9.23178468	      0.00000000	      0.00000000	     10.14040236	      8.93308249	      8.09738852	     -0.78968902	     -0.01378267	     -0.31037450	      0.00000000	      0.00000000	      7.37553263	     -6.12240623	      0.91755566	      0.00000000	      0.00000000	      0.00000000	      0.00000000	      0.00000000	      0.00000000	      0.00000000	      0.00000000	      0.00000000	      0.00000000	      0.00000000	      0.00000000	      0.00000000	      0.00000000
      2.27000000	     -3.94763010	    -10.91167948	     89.33285071	      0.19114897	      0.92283589	     -0.14463154	     30.51356207	     -5.39090975	     -0.26177637	     49.84257310	      0.86991701	      9.72023263	      0.00000000	      0.00000000	      9.43936876	      8.84811667	      8.38144579	     -0.99700207	     -0.01740097	      0.07058695	      0.00000000	      0.00000000	      7.12339440	     -6.04318674	      0.83880784	      0.00000000	      0.00000000	      0.00000000	      0.00000000	      0.00000000	      0.00000000	      0.00000000	      0.00000000	      0.00000000	      0.00000000	      0.00000000	      0.00000000	      0.00000000	      0.00000000
      2.28000000	     -3.88207383	    -10.76726483	     89.41781978	      0.19118661	      0.92289421	     -0.15142898	     31.14961714	     -5.34553898	     -0.27296984	     48.14212311	      0.84023856	     10.11046416	      0.00000000	      0.00000000	      8.68450474	      8.78345551	      8.68911139	     -1.19936188	     -0.02093281	      0.46499731	      0.00000000	      0.00000000	      6.81040621	     -5.99537024	      0.81521217	      0.00000000	      0.00000000	      0.00000000	      0.00000000	      0.00000000	      0.00000000	      0.00000000	      0.00000000	      0.00000000	      0.00000000	      0.00000000	      0.00000000	      0.00000000	      0.00000000
      2.29000000	     -3.81270720	    -10.67819281	     89.49933530	      0.19127540	      0.92279297	     -0.15816599	     31.81041566	     -5.27460709	     -0.29013935	     46.36415826	      0.80920722	     10.40651887	      0.00000000	      0.00000000	      8.03337151	      8.71276611	      8.92223849	     -1.33050754	     -0.02322174	      0.86685293	      0.00000000	      0.00000000	      6.55387475	     -5.93746005	      0.77086976	      0.00000000	      0.00000000	      0.00000000	      0.00000000	      0.00000000	      0.00000000	      0.00000000	      0.00000000	      0.00000000	      0.00000000	      0.00000000	      0.00000000	      0.00000000	      0.00000000
      2.30000000	     -3.78226227	    -10.42495808	     89.55209065	      0.19142664	      0.92285950	     -0.16509747	     32.22366058	     -5.21116048	     -0.27079502	     44.47572404	      0.77624782	     10.54643609	     -0.00000000	     -0.00000000	      7.14238818	      8.66913338	      9.22381097	     -1.55761580	     -0.02718552	      1.24345780	      0.00000000	     -0.00000000	      6.13625536	     -5.93341783	      0.78934714	     -0.00000000	      0.00000000	     -0.00000000	      0.00000000	      0.00000000	      0.00000000	     -0.00000000	      0.00000000	     -0.00000000	      0.00000000	      0.00000000	      0.00000000	     -0.00000000	      0.00000000
      2.31000000	     -3.74012353	    -10.38104654	     89.59198982	      0.19161575	      0.92254937	     -0.17183260	     32.85449200	     -5.10099500	     -0.23402705	     42.55743885	      0.74276743	     10.62836847	      0.00000000	     -0.00000000	      6.57753639	      8.61517541	      9.37479649	     -1.61736445	     -0.02822833	      1.71753285	      0.00000000	     -0.00000000	      5.94246987	     -5.90333784	      0.84669322	      0.00000000	     -0.00000000	     -0.00000000	      0.00000000	      0.00000000	      0.00000000	     -0.00000000	      0.00000000	     -0.00000000	     -0.00000000	      0.00000000	      0.00000000	     -0.00000000	      0.00000000
      2.32000000	     -3.69814661	    -10.29354361	     89.63595705	      0.19185138	      0.92222911	     -0.17863823	     33.37914210	     -4.97571455	     -0.20877662	     40.57473149	      0.70816266	     10.56356586	      0.00000000	      0.00000000	      5.96550245	      8.55846280	      9.54930484	     -1.67053576	     -0.02915635	      2.18496813	      0.00000000	      0.00000000	      5.70038818	     -5.87945828	      0.87085589	      0.00000000	      0.00000000	      0.00000000	      0.00000000	      0.00000000	      0.00000000	      0.00000000	      0.00000000	      0.00000000	      0.00000000	      0.00000000	      0.00000000	      0.00000000	      0.00000000
      2.33000000	     -3.93630984	    -10.36857243	     89.64840677	      0.19195150	      0.92146137	     -0.18529238	     34.18512809	     -5.15128865	     -0.12581610	     38.78267467	      0.67688537	     10.57886573	      0.00000000	      0.00000000	      5.62030885	      8.81847274	      9.36857627	     -1.58895176	     -0.02773244	      2.36006875	     -0.00000000	      0.00000000	      5.64306624	     -6.18059890	      0.96449478	      0.00000000	     -0.00000000	     -0.00000000	      0.00000000	      0.00000000	      0.00000000	     -0.00000000	     -0.00000000	      0.00000000	     -0.00000000	      0.00000000	      0.00000000	     -0.00000000	      0.00000000
      2.34000000	     -3.63058606	    -10.09685918	     89.68233289	      0.19250869	      0.92139899	     -0.19241179	     34.27793425	     -4.65386174	     -0.09810179	     36.49738789	      0.63699959	     10.03131700	      0.00000000	      0.00000000	      4.71223479	      8.44352186	      9.84356738	     -1.76674147	     -0.03083546	      3.19833549	      0.00000000	      0.00000000	      5.20841378	     -5.84768941	      0.99827999	      0.00000000	      0.00000000	      0.00000000	      0.00000000	      0.00000000	      0.00000000	      0.00000000	      0.00000000	      0.00000000	      0.00000000	      0.00000000	      0.00000000	      0.00000000	      0.00000000
      2.35000000	     -3.61007484	     -9.79884805	     89.70362717	      0.19287591	      0.92117312	     -0.19953270	     34.42113085	     -4.49322330	     -0.05868065	     34.39585271	      0.60032088	      9.59652377	      0.00000000	      0.00000000	      3.81037851	      8.39216505	     10.09963200	     -1.89859611	     -0.03313675	      3.60389356	      0.00000000	      0.00000000	      4.73524145	     -5.85171253	      1.04615331	      0.00000000	      0.00000000	      0.00000000	      0.00000000	      0.00000000	      0.00000000	      0.00000000	      0.00000000	      0.00000000	      0.00000000	      0.00000000	      0.00000000	      0.00000000	      0.00000000
      2.36000000	     -3.57462559	     -9.77923095	     89.71785294	      0.19328163	      0.92047010	     -0.20649891	     34.85503462	     -4.27289368	      0.06326809	     32.31964603	      0.56408424	      9.13155679	      0.00000000	     -0.00000000	      3.30309797	      8.32993359	     10.19072683	     -1.86990759	     -0.03263604	      4.10137527	      0.00000000	      0.00000000	      4.58777212	     -5.83263838	      1.10645671	     -0.00000000	     -0.00000000	      0.00000000	      0.00000000	      0.00000000	     -0.00000000	     -0.00000000	      0.00000000	     -0.00000000	      0.00000000	      0.00000000	      0.00000000	     -0.00000000	      0.00000000
      2.37000000	     -3.52693854	     -9.60502593	     89.72852055	      0.19375887	      0.91993444	     -0.21364825	     35.05704662	     -4.03371546	      0.15971909	     30.20940250	      0.52725354	      8.50347574	      0.00000000	      0.00000000	      2.57464057	      8.24198064	     10.35017980	     -1.92188401	     -0.03354320	      4.63749715	      0.00000000	      0.00000000	      4.26567952	     -5.80476746	      1.17289064	      0.00000000	      0.00000000	      0.00000000	      0.00000000	      0.00000000	      0.00000000	      0.00000000	      0.00000000	      0.00000000	      0.00000000	      0.00000000	      0.00000000	      0.00000000	      0.00000000
      2.38000000	     -3.47467677	     -9.54664129	     89.73647516	      0.19425061	      0.91916961	     -0.22080915	     35.35544489	     -3.76384736	      0.33769809	     28.12295673	      0.49083819	      7.92445029	      0.00000000	      0.00000000	      1.99893159	      8.15577199	     10.46621921	     -1.91028048	     -0.03334068	      5.13831668	      0.00000000	      0.00000000	      4.09182226	     -5.76557433	      1.22064895	      0.00000000	      0.00000000	      0.00000000	      0.00000000	      0.00000000	      0.00000000	      0.00000000	      0.00000000	      0.00000000	      0.00000000	      0.00000000	      0.00000000	      0.00000000	      0.00000000
      2.39000000	     -3.42152528	     -9.41189818	     89.74173408	      0.19477784	      0.91844788	     -0.22806614	     35.51893833	     -3.48953781	      0.52891931	     26.02662665	      0.45425033	      7.25637102	      0.00000000	      0.00000000	      1.32494396	      8.06100440	     10.60896244	     -1.92266132	     -0.03355677	      5.65549257	      0.00000000	      0.00000000	      3.81894467	     -5.72743265	      1.28596331	      0.00000000	      0.00000000	      0.00000000	      0.00000000	      0.00000000	      0.00000000	      0.00000000	      0.00000000	      0.00000000	      0.00000000	      0.00000000	      0.00000000	      0.00000000	      0.00000000
      2.40000000	     -3.48120020	     -9.47799377	     89.74639645	      0.19529776	      0.91731507	     -0.23525274	     35.94334879	     -3.32443771	      0.79537231	     24.08926462	      0.42043698	      6.92944249	      0.00000000	      0.00000000	      0.91958545	      8.09653123	     10.65887431	     -1.83909459	     -0.03209826	      6.00378807	      0.00000000	      0.00000000	      3.79370563	     -5.84670855	      1.29518657	      0.00000000	      0.00000000	      0.00000000	      0.00000000	      0.00000000	      0.00000000	      0.00000000	      0.00000000	      0.00000000	      0.00000000	      0.00000000	      0.00000000	      0.00000000	      0.00000000
      2.41000000	     -3.28741229	     -9.21433094	     89.74876044	      0.19592306	      0.91670487	     -0.24281807	     35.79900855	     -2.88783588	      1.05070834	     21.88471457	      0.38196033	      5.94315572	      0.00000000	     -0.00000000	      0.03243870	      7.84083786	     10.83443983	     -1.95403539	     -0.03410435	      6.68522702	     -0.00000000	      0.00000000	      3.37950158	     -5.61633994	      1.36150573	      0.00000000	      0.00000000	      0.00000000	      0.00000000	      0.00000000	     -0.00000000	     -0.00000000	     -0.00000000	     -0.00000000	     -0.00000000	      0.00000000	      0.00000000	      0.00000000	     -0.00000000
